<?xml version="1.0" encoding="UTF-8"?>
<svg xmlns="http://www.w3.org/2000/svg" version="1.1" width="400" height="400" viewBox="0 0 400 400"><rect x="0" y="0" width="400" height="400" fill="#fefefe"/><g transform="scale(7.018)"><g transform="translate(4.000,4.000)"><path fill-rule="evenodd" d="M9 0L9 1L8 1L8 2L9 2L9 3L8 3L8 4L9 4L9 5L8 5L8 7L9 7L9 8L6 8L6 9L8 9L8 10L10 10L10 11L9 11L9 12L8 12L8 11L7 11L7 10L6 10L6 11L7 11L7 12L6 12L6 13L5 13L5 8L0 8L0 11L1 11L1 13L0 13L0 14L2 14L2 15L0 15L0 19L1 19L1 20L0 20L0 21L1 21L1 22L2 22L2 21L3 21L3 23L4 23L4 25L2 25L2 26L1 26L1 23L0 23L0 27L1 27L1 28L0 28L0 31L4 31L4 28L2 28L2 27L5 27L5 29L7 29L7 30L5 30L5 32L6 32L6 33L7 33L7 34L6 34L6 35L5 35L5 33L4 33L4 34L3 34L3 32L0 32L0 35L1 35L1 36L0 36L0 38L1 38L1 40L0 40L0 41L3 41L3 40L4 40L4 39L2 39L2 38L1 38L1 36L2 36L2 37L4 37L4 38L5 38L5 39L8 39L8 40L6 40L6 41L8 41L8 43L9 43L9 42L10 42L10 44L8 44L8 49L9 49L9 47L10 47L10 48L11 48L11 49L12 49L12 48L16 48L16 44L15 44L15 42L16 42L16 43L17 43L17 45L18 45L18 46L17 46L17 47L19 47L19 48L18 48L18 49L19 49L19 48L20 48L20 47L21 47L21 49L22 49L22 48L23 48L23 49L25 49L25 46L23 46L23 47L22 47L22 45L27 45L27 42L30 42L30 44L29 44L29 45L28 45L28 46L26 46L26 47L27 47L27 48L28 48L28 49L29 49L29 47L28 47L28 46L29 46L29 45L30 45L30 48L31 48L31 49L32 49L32 46L34 46L34 47L33 47L33 48L34 48L34 49L35 49L35 48L36 48L36 49L40 49L40 48L41 48L41 47L42 47L42 46L43 46L43 45L44 45L44 47L45 47L45 49L46 49L46 47L47 47L47 49L49 49L49 48L48 48L48 47L49 47L49 44L48 44L48 43L49 43L49 35L48 35L48 38L46 38L46 37L47 37L47 35L46 35L46 31L47 31L47 32L48 32L48 31L49 31L49 27L48 27L48 29L47 29L47 28L46 28L46 27L45 27L45 25L49 25L49 18L48 18L48 17L49 17L49 11L48 11L48 12L47 12L47 11L46 11L46 10L45 10L45 9L46 9L46 8L45 8L45 9L44 9L44 8L43 8L43 9L42 9L42 8L39 8L39 9L38 9L38 11L37 11L37 10L36 10L36 9L37 9L37 6L38 6L38 7L39 7L39 5L35 5L35 6L34 6L34 7L33 7L33 6L32 6L32 10L31 10L31 9L30 9L30 8L31 8L31 5L34 5L34 4L35 4L35 3L36 3L36 4L37 4L37 3L36 3L36 2L37 2L37 1L38 1L38 2L39 2L39 4L40 4L40 3L41 3L41 0L40 0L40 1L38 1L38 0L37 0L37 1L36 1L36 0L35 0L35 1L34 1L34 2L35 2L35 3L33 3L33 4L30 4L30 3L31 3L31 2L32 2L32 1L33 1L33 0L32 0L32 1L31 1L31 0L29 0L29 2L27 2L27 1L28 1L28 0L25 0L25 1L23 1L23 3L21 3L21 5L20 5L20 7L19 7L19 5L17 5L17 4L18 4L18 3L17 3L17 4L16 4L16 3L15 3L15 4L16 4L16 5L15 5L15 6L14 6L14 8L15 8L15 9L16 9L16 10L10 10L10 9L11 9L11 8L12 8L12 7L13 7L13 6L12 6L12 4L11 4L11 5L10 5L10 4L9 4L9 3L10 3L10 1L11 1L11 3L12 3L12 2L13 2L13 3L14 3L14 2L13 2L13 1L14 1L14 0L13 0L13 1L11 1L11 0ZM15 0L15 2L19 2L19 4L20 4L20 2L21 2L21 1L22 1L22 0L19 0L19 1L16 1L16 0ZM19 1L19 2L20 2L20 1ZM25 1L25 2L24 2L24 3L23 3L23 4L24 4L24 3L25 3L25 4L27 4L27 2L26 2L26 1ZM35 1L35 2L36 2L36 1ZM29 2L29 3L30 3L30 2ZM13 4L13 5L14 5L14 4ZM28 4L28 6L27 6L27 7L28 7L28 6L29 6L29 7L30 7L30 4ZM9 5L9 7L10 7L10 8L11 8L11 7L12 7L12 6L11 6L11 7L10 7L10 5ZM23 5L23 8L26 8L26 5ZM15 6L15 8L16 8L16 9L17 9L17 8L19 8L19 9L20 9L20 10L22 10L22 8L21 8L21 7L22 7L22 6L21 6L21 7L20 7L20 8L19 8L19 7L18 7L18 6L17 6L17 8L16 8L16 6ZM24 6L24 7L25 7L25 6ZM35 6L35 7L34 7L34 8L35 8L35 9L36 9L36 8L35 8L35 7L36 7L36 6ZM40 6L40 7L41 7L41 6ZM47 8L47 10L49 10L49 9L48 9L48 8ZM1 9L1 10L2 10L2 9ZM23 9L23 10L25 10L25 11L26 11L26 12L24 12L24 11L23 11L23 12L22 12L22 14L25 14L25 13L26 13L26 16L23 16L23 15L22 15L22 17L21 17L21 15L20 15L20 12L21 12L21 11L20 11L20 12L19 12L19 11L15 11L15 13L13 13L13 15L12 15L12 13L11 13L11 14L10 14L10 12L11 12L11 11L10 11L10 12L9 12L9 13L6 13L6 14L7 14L7 15L5 15L5 17L4 17L4 19L2 19L2 20L1 20L1 21L2 21L2 20L3 20L3 21L5 21L5 20L8 20L8 18L9 18L9 16L8 16L8 15L9 15L9 14L10 14L10 15L12 15L12 16L13 16L13 17L14 17L14 18L11 18L11 16L10 16L10 18L11 18L11 19L9 19L9 20L12 20L12 21L14 21L14 23L15 23L15 24L14 24L14 25L13 25L13 24L12 24L12 22L11 22L11 21L10 21L10 22L11 22L11 24L10 24L10 23L9 23L9 25L12 25L12 26L11 26L11 28L9 28L9 27L6 27L6 28L7 28L7 29L9 29L9 30L7 30L7 31L6 31L6 32L8 32L8 33L9 33L9 30L10 30L10 32L12 32L12 30L10 30L10 29L12 29L12 27L13 27L13 28L14 28L14 27L13 27L13 26L15 26L15 24L16 24L16 25L18 25L18 24L19 24L19 25L21 25L21 26L22 26L22 25L21 25L21 24L22 24L22 22L23 22L23 21L24 21L24 19L23 19L23 20L21 20L21 19L20 19L20 18L25 18L25 17L26 17L26 18L27 18L27 17L28 17L28 16L27 16L27 13L26 13L26 12L27 12L27 11L26 11L26 9ZM28 9L28 11L29 11L29 12L30 12L30 13L28 13L28 15L30 15L30 13L31 13L31 16L29 16L29 18L28 18L28 20L30 20L30 21L29 21L29 22L28 22L28 21L27 21L27 22L28 22L28 23L27 23L27 25L28 25L28 23L30 23L30 21L34 21L34 22L32 22L32 23L34 23L34 24L33 24L33 26L32 26L32 25L31 25L31 24L29 24L29 25L31 25L31 26L32 26L32 29L31 29L31 28L30 28L30 27L29 27L29 26L27 26L27 28L26 28L26 29L24 29L24 28L23 28L23 29L22 29L22 28L21 28L21 27L20 27L20 26L19 26L19 27L18 27L18 26L17 26L17 27L18 27L18 28L16 28L16 27L15 27L15 29L13 29L13 32L14 32L14 31L16 31L16 32L15 32L15 34L14 34L14 33L13 33L13 34L12 34L12 33L10 33L10 34L7 34L7 35L6 35L6 36L7 36L7 37L5 37L5 36L4 36L4 35L3 35L3 36L4 36L4 37L5 37L5 38L8 38L8 37L9 37L9 38L10 38L10 37L12 37L12 38L11 38L11 39L12 39L12 40L8 40L8 41L10 41L10 42L12 42L12 43L11 43L11 44L10 44L10 45L9 45L9 46L10 46L10 47L11 47L11 48L12 48L12 47L11 47L11 46L12 46L12 45L11 45L11 44L12 44L12 43L13 43L13 44L14 44L14 43L13 43L13 42L15 42L15 40L16 40L16 39L15 39L15 38L16 38L16 37L17 37L17 35L18 35L18 36L19 36L19 35L18 35L18 32L19 32L19 34L21 34L21 35L20 35L20 38L21 38L21 39L20 39L20 40L21 40L21 41L19 41L19 39L17 39L17 40L18 40L18 41L16 41L16 42L17 42L17 43L18 43L18 44L19 44L19 47L20 47L20 44L21 44L21 45L22 45L22 43L20 43L20 44L19 44L19 43L18 43L18 42L21 42L21 41L22 41L22 40L21 40L21 39L22 39L22 38L23 38L23 37L22 37L22 36L24 36L24 34L25 34L25 35L26 35L26 38L24 38L24 39L27 39L27 41L28 41L28 39L30 39L30 37L33 37L33 35L34 35L34 37L35 37L35 39L34 39L34 40L33 40L33 41L32 41L32 39L33 39L33 38L32 38L32 39L31 39L31 40L29 40L29 41L31 41L31 43L33 43L33 44L34 44L34 45L35 45L35 46L37 46L37 48L40 48L40 47L41 47L41 46L39 46L39 45L36 45L36 44L35 44L35 43L36 43L36 42L37 42L37 43L38 43L38 44L39 44L39 43L40 43L40 42L38 42L38 41L36 41L36 40L39 40L39 38L40 38L40 40L42 40L42 39L43 39L43 40L45 40L45 39L46 39L46 40L48 40L48 39L46 39L46 38L45 38L45 37L42 37L42 36L41 36L41 35L39 35L39 33L41 33L41 34L43 34L43 36L45 36L45 34L44 34L44 32L45 32L45 31L46 31L46 30L47 30L47 31L48 31L48 30L47 30L47 29L46 29L46 30L45 30L45 29L44 29L44 28L45 28L45 27L41 27L41 29L39 29L39 26L38 26L38 25L40 25L40 23L38 23L38 21L39 21L39 22L40 22L40 20L41 20L41 21L42 21L42 22L45 22L45 24L47 24L47 23L46 23L46 22L47 22L47 19L48 19L48 18L47 18L47 15L48 15L48 13L46 13L46 14L45 14L45 13L44 13L44 11L45 11L45 12L46 12L46 11L45 11L45 10L42 10L42 9L39 9L39 11L38 11L38 12L35 12L35 11L36 11L36 10L34 10L34 9L33 9L33 10L32 10L32 11L31 11L31 12L30 12L30 10L29 10L29 9ZM3 10L3 11L2 11L2 12L3 12L3 13L2 13L2 14L4 14L4 12L3 12L3 11L4 11L4 10ZM40 10L40 11L39 11L39 12L38 12L38 14L35 14L35 16L34 16L34 13L35 13L35 12L34 12L34 11L32 11L32 13L33 13L33 16L34 16L34 17L32 17L32 16L31 16L31 17L32 17L32 18L31 18L31 19L30 19L30 20L31 20L31 19L32 19L32 20L34 20L34 21L36 21L36 20L37 20L37 19L39 19L39 20L40 20L40 19L41 19L41 20L43 20L43 18L45 18L45 17L42 17L42 16L43 16L43 15L44 15L44 14L43 14L43 13L42 13L42 14L40 14L40 15L42 15L42 16L41 16L41 18L40 18L40 16L39 16L39 18L36 18L36 20L34 20L34 19L35 19L35 18L34 18L34 17L36 17L36 16L37 16L37 17L38 17L38 15L39 15L39 13L41 13L41 12L43 12L43 11L41 11L41 10ZM13 11L13 12L14 12L14 11ZM40 11L40 12L41 12L41 11ZM18 12L18 13L17 13L17 15L19 15L19 16L17 16L17 17L15 17L15 16L16 16L16 15L15 15L15 14L16 14L16 13L15 13L15 14L14 14L14 15L13 15L13 16L14 16L14 17L15 17L15 19L17 19L17 18L18 18L18 20L20 20L20 19L19 19L19 18L20 18L20 15L19 15L19 12ZM23 12L23 13L24 13L24 12ZM46 14L46 15L47 15L47 14ZM2 15L2 18L3 18L3 15ZM6 16L6 17L7 17L7 18L6 18L6 19L7 19L7 18L8 18L8 17L7 17L7 16ZM18 17L18 18L19 18L19 17ZM32 18L32 19L34 19L34 18ZM39 18L39 19L40 19L40 18ZM4 19L4 20L5 20L5 19ZM12 19L12 20L14 20L14 19ZM26 19L26 20L25 20L25 22L26 22L26 20L27 20L27 19ZM44 19L44 21L45 21L45 22L46 22L46 21L45 21L45 20L46 20L46 19ZM15 20L15 21L16 21L16 22L15 22L15 23L16 23L16 24L17 24L17 23L19 23L19 24L20 24L20 23L21 23L21 22L22 22L22 21L19 21L19 22L17 22L17 21L16 21L16 20ZM6 21L6 22L7 22L7 21ZM8 21L8 22L9 22L9 21ZM19 22L19 23L20 23L20 22ZM34 22L34 23L37 23L37 24L34 24L34 25L35 25L35 26L36 26L36 27L35 27L35 28L34 28L34 26L33 26L33 28L34 28L34 29L32 29L32 30L31 30L31 29L30 29L30 28L29 28L29 29L28 29L28 30L27 30L27 32L28 32L28 33L26 33L26 32L25 32L25 31L26 31L26 30L25 30L25 31L23 31L23 30L24 30L24 29L23 29L23 30L20 30L20 31L19 31L19 28L20 28L20 29L21 29L21 28L20 28L20 27L19 27L19 28L18 28L18 29L17 29L17 30L18 30L18 31L19 31L19 32L20 32L20 31L21 31L21 33L22 33L22 31L23 31L23 32L25 32L25 33L26 33L26 34L27 34L27 35L28 35L28 34L29 34L29 31L28 31L28 30L29 30L29 29L30 29L30 32L31 32L31 31L32 31L32 30L34 30L34 31L33 31L33 32L34 32L34 33L35 33L35 34L36 34L36 37L37 37L37 38L36 38L36 39L38 39L38 37L41 37L41 38L42 38L42 37L41 37L41 36L38 36L38 35L37 35L37 34L36 34L36 33L39 33L39 32L36 32L36 31L37 31L37 30L39 30L39 31L40 31L40 32L41 32L41 33L43 33L43 32L42 32L42 31L45 31L45 30L44 30L44 29L43 29L43 28L42 28L42 29L41 29L41 30L42 30L42 31L40 31L40 30L39 30L39 29L37 29L37 28L38 28L38 26L36 26L36 25L37 25L37 24L38 24L38 23L37 23L37 22ZM5 23L5 26L8 26L8 23ZM23 23L23 26L26 26L26 23ZM41 23L41 26L44 26L44 23ZM6 24L6 25L7 25L7 24ZM24 24L24 25L25 25L25 24ZM42 24L42 25L43 25L43 24ZM1 28L1 29L2 29L2 30L3 30L3 29L2 29L2 28ZM15 29L15 30L16 30L16 29ZM34 29L34 30L35 30L35 29ZM36 29L36 30L37 30L37 29ZM42 29L42 30L43 30L43 29ZM34 31L34 32L35 32L35 33L36 33L36 32L35 32L35 31ZM16 32L16 34L15 34L15 35L17 35L17 32ZM1 33L1 34L2 34L2 33ZM30 33L30 36L29 36L29 37L28 37L28 38L27 38L27 39L28 39L28 38L29 38L29 37L30 37L30 36L31 36L31 35L32 35L32 33ZM10 34L10 35L8 35L8 36L9 36L9 37L10 37L10 36L11 36L11 34ZM13 35L13 36L12 36L12 37L13 37L13 38L14 38L14 37L13 37L13 36L14 36L14 35ZM21 35L21 36L22 36L22 35ZM15 36L15 37L16 37L16 36ZM37 36L37 37L38 37L38 36ZM18 37L18 38L19 38L19 37ZM43 38L43 39L45 39L45 38ZM14 39L14 40L15 40L15 39ZM12 40L12 42L13 42L13 40ZM34 40L34 41L35 41L35 42L33 42L33 43L35 43L35 42L36 42L36 41L35 41L35 40ZM23 41L23 44L26 44L26 41ZM41 41L41 44L44 44L44 41ZM46 41L46 43L47 43L47 42L48 42L48 41ZM24 42L24 43L25 43L25 42ZM42 42L42 43L43 43L43 42ZM30 44L30 45L31 45L31 46L32 46L32 45L31 45L31 44ZM47 44L47 45L46 45L46 46L45 46L45 47L46 47L46 46L47 46L47 47L48 47L48 44ZM13 45L13 47L15 47L15 45ZM34 47L34 48L35 48L35 47ZM0 0L0 7L7 7L7 0ZM1 1L1 6L6 6L6 1ZM2 2L2 5L5 5L5 2ZM49 0L42 0L42 7L49 7ZM48 1L43 1L43 6L48 6ZM47 2L44 2L44 5L47 5ZM0 49L7 49L7 42L0 42ZM1 48L6 48L6 43L1 43ZM2 47L5 47L5 44L2 44Z" fill="#000000"/></g></g></svg>
